<mxfile host="app.diagrams.net" modified="2023-11-09T01:17:53.973Z" agent="Mozilla/5.0 (Windows NT 10.0; Win64; x64) AppleWebKit/537.36 (KHTML, like Gecko) Chrome/119.0.0.0 Safari/537.36" etag="GK2RHuf8zTHzRZUE8cJp" version="22.1.0" type="device">
  <diagram name="Page-1" id="gOTJnv8pHefNK7PQHjmw">
    <mxGraphModel dx="846" dy="786" grid="1" gridSize="10" guides="1" tooltips="1" connect="1" arrows="1" fold="1" page="1" pageScale="1" pageWidth="850" pageHeight="1100" math="0" shadow="0">
      <root>
        <mxCell id="0" />
        <mxCell id="1" parent="0" />
        <mxCell id="5rKKiNd1cadZ5z_8pX25-2" value="&lt;span style=&quot;color: rgb(0, 0, 0); font-family: Helvetica; font-size: 12px; font-style: normal; font-variant-ligatures: normal; font-variant-caps: normal; font-weight: 400; letter-spacing: normal; orphans: 2; text-align: center; text-indent: 0px; text-transform: none; widows: 2; word-spacing: 0px; -webkit-text-stroke-width: 0px; background-color: rgb(251, 251, 251); text-decoration-thickness: initial; text-decoration-style: initial; text-decoration-color: initial; float: none; display: inline !important;&quot;&gt;BoardPosition&lt;br&gt;&amp;nbsp;int64 (x12)&lt;/span&gt;" style="rounded=1;whiteSpace=wrap;html=1;" vertex="1" parent="1">
          <mxGeometry x="30" y="200" width="160" height="80" as="geometry" />
        </mxCell>
        <mxCell id="5rKKiNd1cadZ5z_8pX25-6" value="ChessGame" style="swimlane;whiteSpace=wrap;html=1;" vertex="1" parent="1">
          <mxGeometry x="10" y="340" width="200" height="200" as="geometry" />
        </mxCell>
        <mxCell id="5rKKiNd1cadZ5z_8pX25-15" value="MoveList - List&amp;lt;ChessMove&amp;gt;" style="text;html=1;strokeColor=none;fillColor=none;align=center;verticalAlign=middle;whiteSpace=wrap;rounded=0;" vertex="1" parent="5rKKiNd1cadZ5z_8pX25-6">
          <mxGeometry y="30" width="200" height="30" as="geometry" />
        </mxCell>
        <mxCell id="5rKKiNd1cadZ5z_8pX25-18" value="CurrentBoard - BoardPosition" style="text;html=1;strokeColor=none;fillColor=none;align=center;verticalAlign=middle;whiteSpace=wrap;rounded=0;" vertex="1" parent="5rKKiNd1cadZ5z_8pX25-6">
          <mxGeometry y="60" width="200" height="30" as="geometry" />
        </mxCell>
        <mxCell id="5rKKiNd1cadZ5z_8pX25-20" value="WhitePlayer - User" style="text;html=1;strokeColor=none;fillColor=none;align=center;verticalAlign=middle;whiteSpace=wrap;rounded=0;" vertex="1" parent="5rKKiNd1cadZ5z_8pX25-6">
          <mxGeometry y="90" width="200" height="30" as="geometry" />
        </mxCell>
        <mxCell id="5rKKiNd1cadZ5z_8pX25-22" value="BlackPlayer - User" style="text;html=1;strokeColor=none;fillColor=none;align=center;verticalAlign=middle;whiteSpace=wrap;rounded=0;" vertex="1" parent="5rKKiNd1cadZ5z_8pX25-6">
          <mxGeometry y="120" width="200" height="30" as="geometry" />
        </mxCell>
        <mxCell id="5rKKiNd1cadZ5z_8pX25-19" value="&lt;span style=&quot;color: rgb(0, 0, 0); font-family: Helvetica; font-size: 12px; font-style: normal; font-variant-ligatures: normal; font-variant-caps: normal; font-weight: 400; letter-spacing: normal; orphans: 2; text-align: center; text-indent: 0px; text-transform: none; widows: 2; word-spacing: 0px; -webkit-text-stroke-width: 0px; background-color: rgb(251, 251, 251); text-decoration-thickness: initial; text-decoration-style: initial; text-decoration-color: initial; float: none; display: inline !important;&quot;&gt;ChessMove&lt;/span&gt;&lt;br style=&quot;border-color: var(--border-color); color: rgb(0, 0, 0); font-family: Helvetica; font-size: 12px; font-style: normal; font-variant-ligatures: normal; font-variant-caps: normal; font-weight: 400; letter-spacing: normal; orphans: 2; text-align: center; text-indent: 0px; text-transform: none; widows: 2; word-spacing: 0px; -webkit-text-stroke-width: 0px; background-color: rgb(251, 251, 251); text-decoration-thickness: initial; text-decoration-style: initial; text-decoration-color: initial;&quot;&gt;&lt;span style=&quot;color: rgb(0, 0, 0); font-family: Helvetica; font-size: 12px; font-style: normal; font-variant-ligatures: normal; font-variant-caps: normal; font-weight: 400; letter-spacing: normal; orphans: 2; text-align: center; text-indent: 0px; text-transform: none; widows: 2; word-spacing: 0px; -webkit-text-stroke-width: 0px; background-color: rgb(251, 251, 251); text-decoration-thickness: initial; text-decoration-style: initial; text-decoration-color: initial; float: none; display: inline !important;&quot;&gt;?&lt;/span&gt;" style="rounded=1;whiteSpace=wrap;html=1;" vertex="1" parent="1">
          <mxGeometry x="230" y="170" width="120" height="60" as="geometry" />
        </mxCell>
        <mxCell id="5rKKiNd1cadZ5z_8pX25-21" value="User&lt;br&gt;Class" style="rounded=1;whiteSpace=wrap;html=1;" vertex="1" parent="1">
          <mxGeometry x="230" y="260" width="120" height="60" as="geometry" />
        </mxCell>
        <mxCell id="5rKKiNd1cadZ5z_8pX25-24" value="" style="endArrow=none;html=1;rounded=0;" edge="1" parent="1">
          <mxGeometry width="50" height="50" relative="1" as="geometry">
            <mxPoint x="400" y="670" as="sourcePoint" />
            <mxPoint x="400" y="60" as="targetPoint" />
          </mxGeometry>
        </mxCell>
        <mxCell id="5rKKiNd1cadZ5z_8pX25-26" value="&lt;font style=&quot;font-size: 17px;&quot;&gt;Vue.Js (frontend)&lt;/font&gt;" style="text;html=1;strokeColor=none;fillColor=none;align=center;verticalAlign=middle;whiteSpace=wrap;rounded=0;" vertex="1" parent="1">
          <mxGeometry x="520" y="70" width="200" height="40" as="geometry" />
        </mxCell>
        <mxCell id="5rKKiNd1cadZ5z_8pX25-27" value="&lt;font style=&quot;font-size: 17px;&quot;&gt;Golang (backend)&lt;/font&gt;" style="text;html=1;strokeColor=none;fillColor=none;align=center;verticalAlign=middle;whiteSpace=wrap;rounded=0;" vertex="1" parent="1">
          <mxGeometry x="90" y="70" width="200" height="40" as="geometry" />
        </mxCell>
        <mxCell id="5rKKiNd1cadZ5z_8pX25-52" style="edgeStyle=orthogonalEdgeStyle;rounded=0;orthogonalLoop=1;jettySize=auto;html=1;exitX=0.5;exitY=1;exitDx=0;exitDy=0;" edge="1" parent="1" source="5rKKiNd1cadZ5z_8pX25-31" target="5rKKiNd1cadZ5z_8pX25-34">
          <mxGeometry relative="1" as="geometry" />
        </mxCell>
        <mxCell id="5rKKiNd1cadZ5z_8pX25-31" value="LegalMoves&lt;br&gt;(chessPiece)" style="shape=process;whiteSpace=wrap;html=1;backgroundOutline=1;" vertex="1" parent="1">
          <mxGeometry x="437.5" y="170" width="172.5" height="60" as="geometry" />
        </mxCell>
        <mxCell id="5rKKiNd1cadZ5z_8pX25-32" value="ChessPiece&lt;br&gt;?" style="rounded=1;whiteSpace=wrap;html=1;" vertex="1" parent="1">
          <mxGeometry x="250" y="420" width="120" height="60" as="geometry" />
        </mxCell>
        <mxCell id="5rKKiNd1cadZ5z_8pX25-33" value="ChessPiece&lt;br&gt;?" style="rounded=1;whiteSpace=wrap;html=1;" vertex="1" parent="1">
          <mxGeometry x="425" y="420" width="120" height="60" as="geometry" />
        </mxCell>
        <mxCell id="5rKKiNd1cadZ5z_8pX25-36" style="edgeStyle=orthogonalEdgeStyle;rounded=0;orthogonalLoop=1;jettySize=auto;html=1;" edge="1" parent="1" source="5rKKiNd1cadZ5z_8pX25-34" target="5rKKiNd1cadZ5z_8pX25-35">
          <mxGeometry relative="1" as="geometry" />
        </mxCell>
        <mxCell id="5rKKiNd1cadZ5z_8pX25-34" value="ChessBoard(position)&lt;br&gt;List&amp;lt;BoardTile&amp;gt;" style="rounded=1;whiteSpace=wrap;html=1;" vertex="1" parent="1">
          <mxGeometry x="580" y="280" width="170" height="80" as="geometry" />
        </mxCell>
        <mxCell id="5rKKiNd1cadZ5z_8pX25-35" value="BoardTile" style="rounded=1;whiteSpace=wrap;html=1;" vertex="1" parent="1">
          <mxGeometry x="605" y="400" width="120" height="60" as="geometry" />
        </mxCell>
        <mxCell id="5rKKiNd1cadZ5z_8pX25-37" value="PositionCreator&lt;br&gt;(BoardPosition)" style="shape=process;whiteSpace=wrap;html=1;backgroundOutline=1;" vertex="1" parent="1">
          <mxGeometry x="660" y="170" width="170" height="60" as="geometry" />
        </mxCell>
        <mxCell id="5rKKiNd1cadZ5z_8pX25-43" value="getPosition" style="ellipse;shape=cloud;whiteSpace=wrap;html=1;" vertex="1" parent="1">
          <mxGeometry x="90" y="730" width="120" height="80" as="geometry" />
        </mxCell>
        <mxCell id="5rKKiNd1cadZ5z_8pX25-44" value="" style="endArrow=none;html=1;rounded=0;" edge="1" parent="1">
          <mxGeometry width="50" height="50" relative="1" as="geometry">
            <mxPoint x="40" y="680" as="sourcePoint" />
            <mxPoint x="800" y="680" as="targetPoint" />
          </mxGeometry>
        </mxCell>
        <mxCell id="5rKKiNd1cadZ5z_8pX25-45" value="&lt;font style=&quot;font-size: 17px;&quot;&gt;API (connection)&lt;/font&gt;" style="text;html=1;strokeColor=none;fillColor=none;align=center;verticalAlign=middle;whiteSpace=wrap;rounded=0;" vertex="1" parent="1">
          <mxGeometry x="300" y="690" width="200" height="40" as="geometry" />
        </mxCell>
        <mxCell id="5rKKiNd1cadZ5z_8pX25-46" value="makeMove" style="ellipse;shape=cloud;whiteSpace=wrap;html=1;" vertex="1" parent="1">
          <mxGeometry x="230" y="730" width="120" height="80" as="geometry" />
        </mxCell>
        <mxCell id="5rKKiNd1cadZ5z_8pX25-47" value="userLogin" style="ellipse;shape=cloud;whiteSpace=wrap;html=1;" vertex="1" parent="1">
          <mxGeometry x="370" y="730" width="120" height="80" as="geometry" />
        </mxCell>
        <mxCell id="5rKKiNd1cadZ5z_8pX25-48" value="getUser" style="ellipse;shape=cloud;whiteSpace=wrap;html=1;" vertex="1" parent="1">
          <mxGeometry x="500" y="730" width="120" height="80" as="geometry" />
        </mxCell>
        <mxCell id="5rKKiNd1cadZ5z_8pX25-49" value="startGame" style="ellipse;shape=cloud;whiteSpace=wrap;html=1;" vertex="1" parent="1">
          <mxGeometry x="630" y="730" width="120" height="80" as="geometry" />
        </mxCell>
        <mxCell id="5rKKiNd1cadZ5z_8pX25-50" value="GameClock&lt;br&gt;?" style="rounded=1;whiteSpace=wrap;html=1;" vertex="1" parent="1">
          <mxGeometry x="250" y="500" width="120" height="60" as="geometry" />
        </mxCell>
        <mxCell id="5rKKiNd1cadZ5z_8pX25-53" style="edgeStyle=orthogonalEdgeStyle;rounded=0;orthogonalLoop=1;jettySize=auto;html=1;entryX=0.677;entryY=-0.015;entryDx=0;entryDy=0;entryPerimeter=0;" edge="1" parent="1" source="5rKKiNd1cadZ5z_8pX25-37" target="5rKKiNd1cadZ5z_8pX25-34">
          <mxGeometry relative="1" as="geometry" />
        </mxCell>
        <mxCell id="5rKKiNd1cadZ5z_8pX25-54" value="GameClock&lt;br&gt;?" style="rounded=1;whiteSpace=wrap;html=1;" vertex="1" parent="1">
          <mxGeometry x="425" y="500" width="120" height="60" as="geometry" />
        </mxCell>
      </root>
    </mxGraphModel>
  </diagram>
</mxfile>
